<?xml version="1.0" encoding="UTF-8"?>
<svg id="Layer_1" xmlns="http://www.w3.org/2000/svg" version="1.1" viewBox="0 0 88.5 85.6">
  <!-- Generator: Adobe Illustrator 29.2.1, SVG Export Plug-In . SVG Version: 2.1.0 Build 116)  -->
  <defs>
    <style>
      .st0 {
        fill-rule: evenodd;
      }
    </style>
  </defs>
  <path class="st0" d="M85.3,42.7c0,22.4-18.1,40.5-40.5,40.5S4.3,65.1,4.3,42.7,22.4,2.2,44.8,2.2s40.5,18.1,40.5,40.5ZM55.3,20.5c0,3.5-2.8,6.3-6.3,6.3s-6.3-2.8-6.3-6.3,2.8-6.3,6.3-6.3,6.3,2.8,6.3,6.3ZM36.4,35.6l13.7-2c.7-.1,1.3.6,1.1,1.3l-8.1,28c-.4,1.9,4.3-.7,7.5-2.7.9-.5,1.8.3,1.3,1.2-2.5,4.4-7.8,11.7-14.1,9.5-6.4-2.3-4.8-7.4-2.8-13.6.3-1,.6-1.9.9-2.9.7-2.5,1.6-5,2.4-7.2,1.6-4.4,2.8-7.6,1.1-7.2-2,.5-4.4-1.3-3.7-3.7,0-.3.4-.5.7-.6h0Z"/>
</svg>