<?xml version="1.0" encoding="utf-8"?>
<!-- Generator: Adobe Illustrator 16.0.0, SVG Export Plug-In . SVG Version: 6.00 Build 0)  -->
<!DOCTYPE svg PUBLIC "-//W3C//DTD SVG 1.1//EN" "http://www.w3.org/Graphics/SVG/1.1/DTD/svg11.dtd">
<svg version="1.1" id="Calque_1" xmlns="http://www.w3.org/2000/svg" xmlns:xlink="http://www.w3.org/1999/xlink" x="0px" y="0px"
	 width="256px" height="52px" viewBox="0 0 256 52" enable-background="new 0 0 256 52" xml:space="preserve">
<g>
	<path fill="#EAEAEA" d="M232.686,24.987V2.733c0-0.431,0.14-0.718,0.42-0.718h2.937c1.632,0,2.751,0.359,3.591,1.292
		c1.632,1.794,2.191,5.814,2.191,10.265c0,4.379-0.466,7.753-1.818,9.691c-0.839,1.292-2.238,1.723-3.824,1.723L232.686,24.987
		L232.686,24.987z M248.213,51.69c5.549,0,7.693-3.876,7.787-11.413h-0.56c0,4.809-0.933,7.537-2.564,7.537
		c-1.167,0-1.772-0.861-2.099-2.298c-0.373-2.009-0.652-5.239-0.886-8.255c-0.56-8.039-4.849-10.553-10.212-11.485v-0.144
		c6.668-0.718,10.818-4.738,10.818-12.203c0-7.968-3.639-12.419-12.171-12.419H219.35v0.718l3.916,0.072
		c0.373,0,0.466,0.215,0.466,0.646v46.876c0,0.502-0.093,0.646-0.466,0.646l-3.916,0.071v0.719h17.625v-0.719l-3.823-0.071
		c-0.374,0-0.466-0.144-0.466-1.005V25.992l3.684,0.072c2.424,0,4.01,1.221,4.196,5.456c0.094,2.584,0.187,6.029,0.327,8.111
		C241.265,48.029,243.83,51.69,248.213,51.69L248.213,51.69z M200.138,50.758h17.72v-0.719l-3.917-0.071
		c-0.374,0-0.513-0.144-0.513-0.646V2.446c0-0.502,0.139-0.646,0.513-0.646l3.917-0.072V1.011h-17.72v0.718l3.917,0.072
		c0.373,0,0.467,0.144,0.467,0.646v46.876c0,0.502-0.094,0.646-0.467,0.646l-3.917,0.071V50.758L200.138,50.758z M182.838,51.834
		c10.025,0,16.74-11.27,16.74-25.771c0-14.572-6.715-25.842-16.74-25.842s-16.787,11.27-16.787,25.842
		C166.052,40.564,172.813,51.834,182.838,51.834L182.838,51.834z M182.838,50.973c-1.072,0-1.958-0.144-3.03-1.148
		c-2.472-2.369-3.87-9.188-3.87-23.761c0-14.645,1.398-21.464,3.87-23.833c1.072-1.077,1.958-1.221,3.03-1.221
		c1.026,0,1.959,0.144,2.984,1.221c2.472,2.369,3.917,9.188,3.917,23.833c0,14.572-1.445,21.392-3.917,23.761
		C184.797,50.829,183.864,50.973,182.838,50.973L182.838,50.973z M150.896,50.973h3.125L164.42,7.471
		c0.979-4.092,1.771-5.599,3.497-5.671l1.726-0.072V1.011h-9.652v0.718l2.191,0.072c2.377,0.072,2.145,3.087,1.398,6.174
		l-6.808,28.57h-0.14l-6.994-31.585c-0.467-2.153-0.514-3.086,0.746-3.158l3.217-0.072V1.011h-17.254v0.718l1.959,0.072
		c1.399,0.072,1.772,1.148,2.332,3.517L150.896,50.973L150.896,50.973z M104.174,50.758h31.568V30.227h-0.42
		c-1.166,5.098-2.705,10.193-4.756,13.854c-2.145,4.021-4.476,5.743-8.207,5.743h-4.383c-0.373,0-0.466-0.215-0.466-0.646V26.063
		h1.539c1.958,0,3.59,0.503,4.71,2.226c1.445,2.01,2.331,5.671,2.424,9.26h0.56V13.716h-0.56c-0.093,3.589-1.212,7.322-2.472,9.261
		c-1.072,1.794-2.657,2.225-4.663,2.225h-1.539V2.59c0-0.431,0.093-0.646,0.419-0.646h4.15c2.984,0,5.269,1.364,6.854,3.446
		c2.146,2.728,3.824,7.537,5.037,14.141h0.513V1.01h-30.31v0.718L108.09,1.8c0.373,0,0.467,0.215,0.467,0.646v46.876
		c0,0.43-0.094,0.646-0.467,0.646l-3.917,0.071V50.758z M81.885,49.824c-0.373,0-0.466-0.215-0.466-0.646V2.518
		c0-0.431,0.093-0.646,0.419-0.646h3.591c1.678,0,3.077,0.287,4.197,1.148c2.891,2.226,4.149,9.476,4.149,22.971
		c0,13.137-1.632,20.1-4.103,22.54c-1.166,1.078-2.564,1.293-4.01,1.293H81.885L81.885,49.824z M68.129,50.758h18.652
		c9.233,0,16.834-8.974,16.834-24.838c0-15.721-7.461-24.909-17.02-24.909H68.129v0.718L72.046,1.8c0.373,0,0.466,0.215,0.466,0.646
		v46.876c0,0.43-0.093,0.646-0.466,0.646l-3.917,0.071V50.758L68.129,50.758z"/>
	<path fill="#8CA1AD" d="M32.374,50.802H64V30.354h-0.42c-1.168,5.076-2.709,10.152-4.765,13.799
		c-2.148,4.004-4.484,5.72-8.222,5.72h-4.391c-0.374,0-0.467-0.214-0.467-0.644V26.207h1.541c1.962,0,3.598,0.5,4.719,2.216
		c1.448,2.002,2.336,5.648,2.43,9.224h0.561V13.909h-0.561c-0.094,3.575-1.215,7.292-2.477,9.223
		c-1.074,1.788-2.662,2.216-4.671,2.216h-1.542V2.827c0-0.429,0.093-0.644,0.42-0.644h4.159c2.989,0,5.278,1.358,6.867,3.432
		c2.149,2.717,3.83,7.507,5.045,14.085h0.514V1.254H32.374v0.715l3.924,0.072c0.374,0,0.467,0.214,0.467,0.644v46.687
		c0,0.43-0.094,0.645-0.467,0.645l-3.924,0.07V50.802z M0,50.802h30.458V28.709h-0.514c-1.214,5.076-2.663,10.295-4.672,14.228
		c-2.242,4.361-4.11,7.007-7.334,7.007h-4.111c-0.374,0-0.467-0.285-0.467-0.715L13.314,2.684c0-0.5,0.14-0.644,0.514-0.644
		l3.924-0.072V1.253H0v0.715L3.924,2.04c0.374,0,0.467,0.143,0.467,0.644v46.688c0,0.43-0.093,0.715-0.467,0.715H0V50.802z"/>
</g>
</svg>
