<?xml version="1.0" encoding="utf-8"?>
<!-- Generator: Adobe Illustrator 22.0.1, SVG Export Plug-In . SVG Version: 6.00 Build 0)  -->
<svg version="1.1" id="Layer_1" xmlns="http://www.w3.org/2000/svg" xmlns:xlink="http://www.w3.org/1999/xlink" x="0px" y="0px"
	 viewBox="0 0 1000 1000" style="enable-background:new 0 0 1000 1000;" xml:space="preserve">
<style type="text/css">
	.st0{fill:#FFFFFF;}
	.st1{fill:#121212;}
</style>
<path class="st0" d="M940,840c0,55.2-44.8,100-100,100H160c-55.2,0-100-44.8-100-100V160c0-55.2,44.8-100,100-100h680
	c55.2,0,100,44.8,100,100V840z"/>
<path class="st1" d="M840,0H160C71.8,0,0,71.8,0,160v680c0,88.2,71.8,160,160,160h680c88.2,0,160-71.8,160-160V160
	C1000,71.8,928.2,0,840,0z M940,840c0,55.2-44.8,100-100,100H160c-55.2,0-100-44.8-100-100V160c0-55.2,44.8-100,100-100h680
	c55.2,0,100,44.8,100,100V840z"/>
<g>
	<path id="SVGID_1_" class="st1" d="M598.9,770H401.6c-4,0-7.2-3.2-7.2-7.2V427.1c0-5-4-9-9-9H210.2c-4,0-7.2-3.2-7.2-7.2V237.2
		c0-4,3.2-7.2,7.2-7.2h579.6c4,0,7.2,3.2,7.2,7.2v173.7c0,4-3.2,7.2-7.2,7.2H613.3c-4,0-7.2,3.2-7.2,7.2v337.5
		C606.1,766.8,602.9,770,598.9,770z"/>
</g>
</svg>
